<?xml version="1.0" standalone="no"?>
<!DOCTYPE svg PUBLIC "-//W3C//DTD SVG 20010904//EN"
 "http://www.w3.org/TR/2001/REC-SVG-20010904/DTD/svg10.dtd">
<svg version="1.0" xmlns="http://www.w3.org/2000/svg"
 width="120.000000pt" height="120.000000pt" viewBox="0 0 120.000000 120.000000"
 preserveAspectRatio="xMidYMid meet">
<metadata>
Created by potrace 1.11, written by Peter Selinger 2001-2013
</metadata>
<g transform="translate(0.000000,120.000000) scale(0.100000,-0.100000)"
fill="#000000" stroke="none">
<path d="M490 1131 c-100 -29 -181 -102 -205 -185 -17 -56 -20 -162 -6 -199 8
-20 6 -27 -6 -31 -13 -5 -14 -15 -8 -54 4 -26 8 -54 9 -62 6 -36 18 -60 32
-60 8 0 13 -4 10 -8 -3 -5 -30 -8 -61 -7 -46 1 -58 -3 -67 -18 -9 -18 -3 -221
8 -258 2 -9 -1 -23 -8 -30 -39 -40 -79 -121 -84 -169 -1 -8 -3 -22 -5 -30 -4
-13 60 -15 515 -18 l518 -2 -6 22 c-4 13 -9 34 -12 47 -5 25 -37 90 -62 129
-15 23 -23 72 -12 72 3 0 6 54 8 119 4 138 4 138 -88 136 l-56 -2 23 23 c13
13 23 31 24 41 0 10 2 25 4 33 13 59 13 75 1 92 -9 12 -11 30 -7 51 11 48 6
146 -9 195 -16 52 -70 117 -119 141 -90 46 -234 60 -331 32z"/>
</g>
</svg>
